<?xml version="1.0" encoding="utf-8"?>
<!-- Generator: Adobe Illustrator 23.0.3, SVG Export Plug-In . SVG Version: 6.00 Build 0)  -->
<svg version="1.1" id="图层_1" xmlns="http://www.w3.org/2000/svg" xmlns:xlink="http://www.w3.org/1999/xlink" x="0px" y="0px"
	 viewBox="0 0 200 200" style="enable-background:new 0 0 200 200;" xml:space="preserve">
<style type="text/css">
	.st0{fill:#FF0000;}
</style>
<path class="st0" d="M41.2,158.5v-55.4c0-33.1,26.9-60,60.1-60s60.1,26.9,60.1,60v55.4h20.5c4.2,0,7.8,3.4,7.8,7.8
	c0,4.2-3.4,7.8-7.8,7.8H18.2c-4.2,0-7.8-3.4-7.8-7.8c0-4.2,3.4-7.8,7.8-7.8H41.2L41.2,158.5z M105.5,67.3L75.9,116h23.7l-5.9,36.5
	l29.6-48.7H99.6L105.5,67.3L105.5,67.3L105.5,67.3z M151,13.7c2.8,1.7,3.7,5.2,2.1,7.9l-10.7,18.5l-10.1-5.8L143,15.8
	C144.6,13.1,148.1,12.1,151,13.7C150.9,13.7,151,13.7,151,13.7z M101.1,0c3.5,0,6.3,2.6,6.3,5.9v20.9H94.9v-21
	C94.9,2.6,97.6,0,101.1,0L101.1,0L101.1,0z M51.4,13.7c2.8-1.6,6.3-0.6,7.9,2.1l0,0L70,34.3l-10.1,5.8L49.3,21.7
	C47.7,18.9,48.6,15.3,51.4,13.7L51.4,13.7z M15,50.3c1.6-2.8,5.2-3.8,7.9-2.1l0,0l18.5,10.7l-5.8,10.1L17.1,58.2
	C14.3,56.7,13.4,53.1,15,50.3L15,50.3z M187.3,50.3c1.6,2.8,0.6,6.4-2.1,7.9l-18.5,10.7l-5.8-10.1l18.5-10.7
	C182.2,46.5,185.8,47.4,187.3,50.3L187.3,50.3L187.3,50.3L187.3,50.3z"/>
</svg>
