<?xml version="1.0" encoding="utf-8"?>
<!-- Generator: Adobe Illustrator 23.0.3, SVG Export Plug-In . SVG Version: 6.00 Build 0)  -->
<svg version="1.1" id="图层_1" xmlns="http://www.w3.org/2000/svg" xmlns:xlink="http://www.w3.org/1999/xlink" x="0px" y="0px"
	 viewBox="0 0 200 200" style="enable-background:new 0 0 200 200;" xml:space="preserve">
<style type="text/css">
	.st0{fill:#F89028;}
</style>
<path class="st0" d="M48.6,174.5l-43-66.9l36.2,24.7L14.9,62L52,100.3l-5.9-81.4l43.5,65.4L92.1,46L104.8,80l21-80v90.1L145.4,64
	l-2.9,33.4l49.2-50.8l-35.5,97.3l31.3-13.1l-23,26.2l16.1,2.9L140,174.5l14.7-20.4l-18.1,5.8l12.2-42.6L120,141.5l-3.4-38.8l-6,26.7
	l-10.1-16.5l-2.9,24.2l-22-36.8l1.5,47.5l-22-18.4l9.8,45.1L48.6,174.5L48.6,174.5z"/>
</svg>
