<svg xmlns="http://www.w3.org/2000/svg" viewBox="0 0 2436 123.5"><defs><style>.cls-1{fill:#fff;}</style></defs><title>changjiban-1</title><g id="图层_1" data-name="图层 1"><rect width="2436" height="123.5"/></g><g id="图层_2" data-name="图层 2"><polygon class="cls-1" points="2100.01 0 2260.89 0 2377 122.75 2216.13 122.75 2100.01 0"/><polygon class="cls-1" points="1691.81 0 1852.69 0 1968.8 122.75 1807.92 122.75 1691.81 0"/><polygon class="cls-1" points="1283.61 0 1444.48 0 1560.59 122.75 1399.72 122.75 1283.61 0"/><polygon class="cls-1" points="875.41 0 1036.28 0 1152.39 122.75 991.52 122.75 875.41 0"/><polygon class="cls-1" points="467.2 0 628.08 0 744.19 122.75 583.31 122.75 467.2 0"/><polygon class="cls-1" points="59 0 219.88 0 335.99 122.75 175.11 122.75 59 0"/></g></svg>