<svg xmlns="http://www.w3.org/2000/svg" viewBox="0 0 2436 123.5"><defs><style>.cls-1{fill:#fff;}</style></defs><title>changjiban-2</title><g id="图层_1" data-name="图层 1"><rect width="2436" height="123.5"/></g><g id="图层_2" data-name="图层 2"><polygon class="cls-1" points="2100.01 122.75 2260.89 122.75 2377 0 2216.13 0 2100.01 122.75"/><polygon class="cls-1" points="1691.81 122.75 1852.69 122.75 1968.8 0 1807.92 0 1691.81 122.75"/><polygon class="cls-1" points="1283.61 122.75 1444.48 122.75 1560.59 0 1399.72 0 1283.61 122.75"/><polygon class="cls-1" points="875.41 122.75 1036.28 122.75 1152.39 0 991.52 0 875.41 122.75"/><polygon class="cls-1" points="467.2 122.75 628.08 122.75 744.19 0 583.31 0 467.2 122.75"/><polygon class="cls-1" points="59 122.75 219.88 122.75 335.99 0 175.11 0 59 122.75"/></g></svg>