<svg id="图层_2" data-name="图层 2" xmlns="http://www.w3.org/2000/svg" viewBox="0 0 922.61 628"><defs><style>.cls-1{fill:#ad1d2c;}.cls-2{fill:#398e39;}.cls-3{fill:#18308b;}.cls-4{fill:#facd00;}.cls-5{fill:#b7468e;}.cls-6{fill:#00809f;}.cls-7{fill:#532f68;}.cls-8{fill:#9dbd2f;}.cls-9{fill:#ef9a1a;}.cls-10{fill:#c24657;}.cls-11{fill:#364fa1;}.cls-12{fill:#e36c13;}.cls-13{fill:#4f7499;}.cls-14{fill:#c49077;}.cls-15{fill:#684234;}.cls-16{fill:#4c6033;}.cls-17{fill:#7a7ab0;}.cls-18{fill:#59c0a6;}.cls-19{fill:#70706e;}.cls-20{fill:#464744;}.cls-21{fill:#1d1f21;}.cls-22{fill:#9d9d9b;}.cls-23{fill:#cbcbc9;}.cls-24{fill:#fffffb;}</style></defs><title>Datacolor SpyderCheckr 24</title><rect class="cls-1" x="479.82" y="346.83" width="122.92" height="108" rx="6"/><rect class="cls-2" x="639.75" y="346.83" width="122.92" height="108" rx="6"/><rect class="cls-3" x="799.69" y="346.83" width="122.92" height="108" rx="6"/><rect class="cls-4" x="319.88" y="346.83" width="122.92" height="108" rx="6"/><rect class="cls-5" x="159.94" y="346.83" width="122.92" height="108" rx="6"/><rect class="cls-6" y="346.83" width="122.92" height="108" rx="6"/><rect class="cls-7" x="479.82" y="173.42" width="122.92" height="108" rx="6"/><rect class="cls-8" x="639.75" y="173.42" width="122.92" height="108" rx="6"/><rect class="cls-9" x="799.69" y="173.42" width="122.92" height="108" rx="6"/><rect class="cls-10" x="319.88" y="173.42" width="122.92" height="108" rx="6"/><rect class="cls-11" x="159.94" y="173.42" width="122.92" height="108" rx="6"/><rect class="cls-12" y="173.42" width="122.92" height="108" rx="6"/><rect class="cls-13" x="479.82" width="122.92" height="108" rx="6"/><rect class="cls-14" x="639.75" width="122.92" height="108" rx="6"/><rect class="cls-15" x="799.69" width="122.92" height="108" rx="6"/><rect class="cls-16" x="319.88" width="122.92" height="108" rx="6"/><rect class="cls-17" x="159.94" width="122.92" height="108" rx="6"/><rect class="cls-18" width="122.92" height="108" rx="6"/><rect class="cls-19" x="479.82" y="520" width="122.92" height="108" rx="6"/><rect class="cls-20" x="639.75" y="520" width="122.92" height="108" rx="6"/><rect class="cls-21" x="799.69" y="520" width="122.92" height="108" rx="6"/><rect class="cls-22" x="319.88" y="520" width="122.92" height="108" rx="6"/><rect class="cls-23" x="159.94" y="520" width="122.92" height="108" rx="6"/><rect class="cls-24" y="520" width="122.92" height="108" rx="6"/></svg>