<?xml version="1.0" encoding="utf-8"?>
<!-- Generator: Adobe Illustrator 23.0.3, SVG Export Plug-In . SVG Version: 6.00 Build 0)  -->
<svg version="1.1" id="图层_1" xmlns="http://www.w3.org/2000/svg" xmlns:xlink="http://www.w3.org/1999/xlink" x="0px" y="0px"
	 viewBox="0 0 200 200" style="enable-background:new 0 0 200 200;" xml:space="preserve">
<style type="text/css">
	.st0{fill:#FFFFFF;}
</style>
<path class="st0" d="M108.5,70.9l60.3-60.5c2.4-2.3,2.4-6.2,0.1-8.5s-6.2-2.4-8.5-0.1c-0.1,0-0.1,0.1-0.1,0.2L100,62.3L39.8,1.9
	c-2.4-2.3-6.2-2.3-8.5,0.1c-2.3,2.3-2.3,6,0,8.4l60.1,60.5l-60.1,60.5c-2.5,2.2-2.7,6-0.5,8.5c2.2,2.5,6,2.7,8.5,0.5
	c0.2-0.2,0.3-0.3,0.5-0.5L100,79.4l60.2,60.5c2.3,2.4,6.1,2.5,8.5,0.2c2.4-2.3,2.5-6.1,0.2-8.5c-0.1-0.1-0.1-0.1-0.2-0.2L108.5,70.9
	z"/>
</svg>
