<?xml version="1.0" encoding="utf-8"?>
<!-- Generator: Adobe Illustrator 23.0.3, SVG Export Plug-In . SVG Version: 6.00 Build 0)  -->
<svg version="1.1" id="图层_1" xmlns="http://www.w3.org/2000/svg" xmlns:xlink="http://www.w3.org/1999/xlink" x="0px" y="0px"
	 viewBox="0 0 200 200" style="enable-background:new 0 0 200 200;" xml:space="preserve">
<style type="text/css">
	.st0{fill:#FFFFFF;}
</style>
<path class="st0" d="M106.6,54.7l46.6-46.8c1.9-1.8,1.9-4.8,0.1-6.6c-1.8-1.8-4.8-1.9-6.6-0.1c-0.1,0-0.1,0.1-0.1,0.2L100,48.1
	L53.5,1.4c-1.9-1.8-4.8-1.8-6.6,0.1c-1.8,1.8-1.8,4.6,0,6.5l46.5,46.8l-46.5,46.8c-1.9,1.7-2.1,4.6-0.4,6.6c1.7,1.9,4.6,2.1,6.6,0.4
	c0.2-0.2,0.2-0.2,0.4-0.4L100,61.3l46.6,46.8c1.8,1.9,4.7,1.9,6.6,0.2c1.9-1.8,1.9-4.7,0.2-6.6c-0.1-0.1-0.1-0.1-0.2-0.2L106.6,54.7
	z"/>
</svg>
