<svg xmlns="http://www.w3.org/2000/svg" xmlns:xlink="http://www.w3.org/1999/xlink" viewBox="0 0 161.54 286.7"><defs><style>.cls-1,.cls-14{fill:#f2f2f2;}.cls-10,.cls-11,.cls-12,.cls-16,.cls-2,.cls-3,.cls-5,.cls-6,.cls-7,.cls-8,.cls-9{fill:none;}.cls-10,.cls-11,.cls-12,.cls-14,.cls-15,.cls-16,.cls-2,.cls-3,.cls-4,.cls-5,.cls-6,.cls-7,.cls-8,.cls-9{stroke:#999;}.cls-14,.cls-15,.cls-2,.cls-3,.cls-4,.cls-5{stroke-miterlimit:10;}.cls-10,.cls-11,.cls-12,.cls-2,.cls-6,.cls-8,.cls-9{stroke-width:1.64px;}.cls-10,.cls-11,.cls-12,.cls-3,.cls-6,.cls-7,.cls-8,.cls-9{stroke-linecap:round;}.cls-3{stroke-width:2.46px;}.cls-13,.cls-4{fill:#999;}.cls-14,.cls-15,.cls-4,.cls-5{stroke-width:0.82px;}.cls-10,.cls-11,.cls-12,.cls-16,.cls-6,.cls-7,.cls-8,.cls-9{stroke-linejoin:round;}.cls-7{stroke-width:0.67px;}.cls-8{stroke-dasharray:3.96 3.96;}.cls-9{stroke-dasharray:4.3 4.3;}.cls-10{stroke-dasharray:3.98 3.98;}.cls-11{stroke-dasharray:3.98 3.98;}.cls-12{stroke-dasharray:4.2 4.2;}.cls-13{font-size:19.72px;font-family:AlibabaPuHuiTi-Regular-GBpc-EUC-H, Alibaba PuHuiTi;}.cls-15{fill:url(#未命名的渐变_76);}.cls-16{stroke-width:1.67px;}</style><linearGradient id="未命名的渐变_76" x1="79.95" y1="201.37" x2="79.95" y2="226.42" gradientUnits="userSpaceOnUse"><stop offset="0.49" stop-color="#f6f6f6"/><stop offset="1" stop-color="#e6e6e6"/></linearGradient></defs><title>no_data</title><g id="图层_5" data-name="图层 5"><path class="cls-1" d="M447.37,388.06c-2.31,11.36-7.34,19.95-16.43,35.32a215.9,215.9,0,0,1-19.3,27.52c-1.62-1.73-3.28-3.65-4.93-5.75-.88-1.11-1.7-2.21-2.47-3.29,2-3,4.88-7.5,8.22-13.14,8.85-15,14.78-25.12,18.07-38.61A73.35,73.35,0,0,0,433,371.22c-.35-30-22.49-50.63-24.65-52.58-19.2-17.33-41.44-19-48.05-19.3,3.62-.48,40.73-4.76,67.36,23.82C444.59,341.34,451.71,366.73,447.37,388.06Z" transform="translate(-294.11 -297.18)"/></g><g id="图层_2" data-name="图层 2"><path class="cls-2" d="M335,449.69a1.7,1.7,0,0,1-2.82.35,202.37,202.37,0,0,1-18.73-25.84c-8.89-14.56-14.74-24.13-17.25-37a76.25,76.25,0,0,1,15.61-61.61c17.92-22.11,42.88-26.25,49.29-27.1,3.83-.51,40.72-4.78,67.36,23.82,16.93,18.18,24,43.57,19.71,64.89-2.26,11.14-7.39,19.9-16.43,35.33A232.45,232.45,0,0,1,413,450a1.7,1.7,0,0,1-2.83-.28A21.68,21.68,0,0,0,373,447.64a1.69,1.69,0,0,1-2.68.14c-2.58-3-8.29-8.4-16.61-8.79a19.76,19.76,0,0,0-12.32,3.28A19.34,19.34,0,0,0,335,449.69Z" transform="translate(-294.11 -297.18)"/><path class="cls-3" d="M364,397.5a12.32,12.32,0,0,0,19.72,0" transform="translate(-294.11 -297.18)"/><circle class="cls-4" cx="36.2" cy="65" r="3.29"/><circle class="cls-4" cx="126.56" cy="65" r="3.29"/><circle class="cls-2" cx="14.84" cy="184.12" r="4.93"/><circle class="cls-2" cx="133.14" cy="186.58" r="4.93"/><circle class="cls-5" cx="125.54" cy="208.55" r="1.85"/><circle class="cls-5" cx="39.28" cy="211.02" r="1.85"/><path class="cls-6" d="M444.09,498.13l-2.4,8a.42.42,0,0,1-.29.29l-7.17,2.39,7.18,2.4a.43.43,0,0,1,.28.28l2.4,7.18,2.39-7.19a.47.47,0,0,1,.27-.28l6.37-2.39-6.36-2.38a.46.46,0,0,1-.27-.29l-2.4-8" transform="translate(-294.11 -297.18)"/><path class="cls-6" d="M309.36,499.78l-2.39,8a.48.48,0,0,1-.29.3l-7.17,2.39,7.18,2.39a.43.43,0,0,1,.28.28l2.39,7.18,2.4-7.19a.41.41,0,0,1,.27-.27l6.37-2.39L312,508.07a.46.46,0,0,1-.27-.29l-2.4-8" transform="translate(-294.11 -297.18)"/><path class="cls-7" d="M332.18,485.46l-2.77,2a.16.16,0,0,1-.16,0l-2.93-1,1.74,2.56a.18.18,0,0,1,0,.16l-1,2.93,2.57-1.73a.19.19,0,0,1,.16,0l2.66.81L331,488.81a.18.18,0,0,1,0-.16l1.21-3.19" transform="translate(-294.11 -297.18)"/><path class="cls-7" d="M454.58,478.16l-3.23,1.11a.17.17,0,0,1-.17,0l-2.5-1.81.92,3a.23.23,0,0,1,0,.16l-1.82,2.51,3-.92a.18.18,0,0,1,.16,0l2.31,1.55-.72-2.68a.21.21,0,0,1,0-.16l2.09-2.71" transform="translate(-294.11 -297.18)"/><line class="cls-6" x1="40.72" y1="156.6" x2="41.82" y2="158.33"/><line class="cls-8" x1="43.93" y1="161.68" x2="64.03" y2="193.44"/><line class="cls-6" x1="65.09" y1="195.11" x2="66.19" y2="196.85"/><line class="cls-6" x1="50.99" y1="146.33" x2="52.03" y2="148.1"/><line class="cls-9" x1="54.21" y1="151.81" x2="79.25" y2="194.46"/><line class="cls-6" x1="80.34" y1="196.31" x2="81.38" y2="198.08"/><line class="cls-6" x1="106.85" y1="146.33" x2="105.76" y2="148.07"/><line class="cls-10" x1="103.66" y1="151.45" x2="75.3" y2="197.11"/><line class="cls-6" x1="74.25" y1="198.8" x2="73.17" y2="200.54"/><line class="cls-6" x1="78.1" y1="154.54" x2="78.13" y2="156.6"/><line class="cls-11" x1="78.19" y1="160.58" x2="78.86" y2="206.36"/><line class="cls-6" x1="78.89" y1="208.35" x2="78.92" y2="210.4"/><line class="cls-6" x1="115.88" y1="157.83" x2="114.75" y2="159.54"/><line class="cls-12" x1="112.41" y1="163.03" x2="90.26" y2="196.27"/><line class="cls-6" x1="89.09" y1="198.01" x2="87.95" y2="199.72"/><text class="cls-13" transform="translate(9.79 281.08)">啊好 还没开发呢~</text></g><g id="图层_3" data-name="图层 3"><rect class="cls-14" x="55.1" y="193.15" width="50.11" height="8.21"/><polyline class="cls-15" points="58.79 201.37 58.79 226.42 101.1 226.42 101.1 201.47"/></g><g id="图层_4" data-name="图层 4"><polyline class="cls-16" points="57.97 201.37 57.97 227.24 101.51 227.24 101.51 201.47"/><rect class="cls-6" x="54.68" y="192.74" width="50.11" height="8.21"/></g></svg>