<svg id="图层_2" data-name="图层 2" xmlns="http://www.w3.org/2000/svg" viewBox="0 0 922.61 628"><defs><style>.cls-1{fill:#929290;}.cls-2{fill:#b7b7b7;}.cls-3{fill:#dfdfdf;}.cls-4{fill:#797977;}.cls-5{fill:#535655;}.cls-6{fill:#494947;}.cls-7{fill:#b38a6f;}.cls-8{fill:#cbac97;}.cls-9{fill:#d2b5a4;}.cls-10{fill:#bf9c86;}.cls-11{fill:#8f6e56;}.cls-12{fill:#604f47;}.cls-13{fill:#5574bd;}.cls-14{fill:#6ccfcb;}.cls-15{fill:#81be68;}.cls-16{fill:#ba7bc4;}.cls-17{fill:#c8676a;}.cls-18{fill:#d7c95f;}.cls-19{fill:#ededeb;}.cls-20{fill:#f6f9f6;}.cls-21{fill:#fefff8;}.cls-22{fill:#202020;}.cls-23{fill:#3c3f3e;}.cls-24{fill:#434343;}</style></defs><title>X-Rite ColorChecker Passport Viedo</title><rect class="cls-1" x="479.82" y="346.83" width="122.92" height="108" rx="6"/><rect class="cls-2" x="639.75" y="346.83" width="122.92" height="108" rx="6"/><rect class="cls-3" x="799.69" y="346.83" width="122.92" height="108" rx="6"/><rect class="cls-4" x="319.88" y="346.83" width="122.92" height="108" rx="6"/><rect class="cls-5" x="159.94" y="346.83" width="122.92" height="108" rx="6"/><rect class="cls-6" y="346.83" width="122.92" height="108" rx="6"/><rect class="cls-7" x="479.82" y="173.42" width="122.92" height="108" rx="6"/><rect class="cls-8" x="639.75" y="173.42" width="122.92" height="108" rx="6"/><rect class="cls-9" x="799.69" y="173.42" width="122.92" height="108" rx="6"/><rect class="cls-10" x="319.88" y="173.42" width="122.92" height="108" rx="6"/><rect class="cls-11" x="159.94" y="173.42" width="122.92" height="108" rx="6"/><rect class="cls-12" y="173.42" width="122.92" height="108" rx="6"/><rect class="cls-13" x="479.82" width="122.92" height="108" rx="6"/><rect class="cls-14" x="639.75" width="122.92" height="108" rx="6"/><rect class="cls-15" x="799.69" width="122.92" height="108" rx="6"/><rect class="cls-16" x="319.88" width="122.92" height="108" rx="6"/><rect class="cls-17" x="159.94" width="122.92" height="108" rx="6"/><rect class="cls-18" width="122.92" height="108" rx="6"/><rect class="cls-19" x="479.82" y="520" width="122.92" height="108" rx="6"/><rect class="cls-20" x="639.75" y="520" width="122.92" height="108" rx="6"/><rect class="cls-21" x="799.69" y="520" width="122.92" height="108" rx="6"/><rect class="cls-22" x="319.88" y="520" width="122.92" height="108" rx="6"/><rect class="cls-23" x="159.94" y="520" width="122.92" height="108" rx="6"/><rect class="cls-24" y="520" width="122.92" height="108" rx="6"/></svg>