<svg id="图层_2" data-name="图层 2" xmlns="http://www.w3.org/2000/svg" viewBox="0 0 922.61 628"><defs><style>.cls-1{fill:#f9d311;}.cls-2{fill:#c8539a;}.cls-3{fill:#008cae;}.cls-4{fill:#bd3a3b;}.cls-5{fill:#409c4b;}.cls-6{fill:#29419a;}.cls-7{fill:#633d6e;}.cls-8{fill:#a6c53e;}.cls-9{fill:#f1a43f;}.cls-10{fill:#d05463;}.cls-11{fill:#4860b2;}.cls-12{fill:#eb8331;}.cls-13{fill:#617143;}.cls-14{fill:#8a87b7;}.cls-15{fill:#63c7b5;}.cls-16{fill:#607ea3;}.cls-17{fill:#d09887;}.cls-18{fill:#7b5245;}.cls-19{fill:gray;}.cls-20{fill:#57595b;}.cls-21{fill:#353535;}.cls-22{fill:#aeabac;}.cls-23{fill:#d5d5d5;}.cls-24{fill:#fefff8;}</style></defs><title>X-Rite ColorChecker Classic</title><rect class="cls-1" x="479.82" y="346.83" width="122.92" height="108" rx="6"/><rect class="cls-2" x="639.75" y="346.83" width="122.92" height="108" rx="6"/><rect class="cls-3" x="799.69" y="346.83" width="122.92" height="108" rx="6"/><rect class="cls-4" x="319.88" y="346.83" width="122.92" height="108" rx="6"/><rect class="cls-5" x="159.94" y="346.83" width="122.92" height="108" rx="6"/><rect class="cls-6" y="346.83" width="122.92" height="108" rx="6"/><rect class="cls-7" x="479.82" y="173.42" width="122.92" height="108" rx="6"/><rect class="cls-8" x="639.75" y="173.42" width="122.92" height="108" rx="6"/><rect class="cls-9" x="799.69" y="173.42" width="122.92" height="108" rx="6"/><rect class="cls-10" x="319.88" y="173.42" width="122.92" height="108" rx="6"/><rect class="cls-11" x="159.94" y="173.42" width="122.92" height="108" rx="6"/><rect class="cls-12" y="173.42" width="122.92" height="108" rx="6"/><rect class="cls-13" x="479.82" width="122.92" height="108" rx="6"/><rect class="cls-14" x="639.75" width="122.92" height="108" rx="6"/><rect class="cls-15" x="799.69" width="122.92" height="108" rx="6"/><rect class="cls-16" x="319.88" width="122.92" height="108" rx="6"/><rect class="cls-17" x="159.94" width="122.92" height="108" rx="6"/><rect class="cls-18" width="122.92" height="108" rx="6"/><rect class="cls-19" x="479.82" y="520" width="122.92" height="108" rx="6"/><rect class="cls-20" x="639.75" y="520" width="122.92" height="108" rx="6"/><rect class="cls-21" x="799.69" y="520" width="122.92" height="108" rx="6"/><rect class="cls-22" x="319.88" y="520" width="122.92" height="108" rx="6"/><rect class="cls-23" x="159.94" y="520" width="122.92" height="108" rx="6"/><rect class="cls-24" y="520" width="122.92" height="108" rx="6"/></svg>