<svg id="图层_2" data-name="图层 2" xmlns="http://www.w3.org/2000/svg" viewBox="0 0 922.61 628"><defs><style>.cls-1{fill:#f6c907;}.cls-2{fill:#be4a93;}.cls-3{fill:#0082a3;}.cls-4{fill:#ab2b2a;}.cls-5{fill:#3e9239;}.cls-6{fill:#1c3593;}.cls-7{fill:#4c2e5b;}.cls-8{fill:#9dbd2f;}.cls-9{fill:#e99b1b;}.cls-10{fill:#c34454;}.cls-11{fill:#3a4fab;}.cls-12{fill:#e17220;}.cls-13{fill:#526234;}.cls-14{fill:#7a79ad;}.cls-15{fill:#57bda6;}.cls-16{fill:#4d7299;}.cls-17{fill:#c48d77;}.cls-18{fill:#6b4738;}.cls-19{fill:#707070;}.cls-20{fill:#46484a;}.cls-21{fill:#222;}.cls-22{fill:#9c9f9e;}.cls-23{fill:#ccc;}.cls-24{fill:#fefff8;}</style></defs><title>X-Rite ColorChecer Classic-Legacy</title><rect class="cls-1" x="479.82" y="346.83" width="122.92" height="108" rx="6"/><rect class="cls-2" x="639.75" y="346.83" width="122.92" height="108" rx="6"/><rect class="cls-3" x="799.69" y="346.83" width="122.92" height="108" rx="6"/><rect class="cls-4" x="319.88" y="346.83" width="122.92" height="108" rx="6"/><rect class="cls-5" x="159.94" y="346.83" width="122.92" height="108" rx="6"/><rect class="cls-6" y="346.83" width="122.92" height="108" rx="6"/><rect class="cls-7" x="479.82" y="173.42" width="122.92" height="108" rx="6"/><rect class="cls-8" x="639.75" y="173.42" width="122.92" height="108" rx="6"/><rect class="cls-9" x="799.69" y="173.42" width="122.92" height="108" rx="6"/><rect class="cls-10" x="319.88" y="173.42" width="122.92" height="108" rx="6"/><rect class="cls-11" x="159.94" y="173.42" width="122.92" height="108" rx="6"/><rect class="cls-12" y="173.42" width="122.92" height="108" rx="6"/><rect class="cls-13" x="479.82" width="122.92" height="108" rx="6"/><rect class="cls-14" x="639.75" width="122.92" height="108" rx="6"/><rect class="cls-15" x="799.69" width="122.92" height="108" rx="6"/><rect class="cls-16" x="319.88" width="122.92" height="108" rx="6"/><rect class="cls-17" x="159.94" width="122.92" height="108" rx="6"/><rect class="cls-18" width="122.92" height="108" rx="6"/><rect class="cls-19" x="479.82" y="520" width="122.92" height="108" rx="6"/><rect class="cls-20" x="639.75" y="520" width="122.92" height="108" rx="6"/><rect class="cls-21" x="799.69" y="520" width="122.92" height="108" rx="6"/><rect class="cls-22" x="319.88" y="520" width="122.92" height="108" rx="6"/><rect class="cls-23" x="159.94" y="520" width="122.92" height="108" rx="6"/><rect class="cls-24" y="520" width="122.92" height="108" rx="6"/></svg>